<?xml version="1.0" encoding="utf-8"?>
<!-- Generator: Adobe Illustrator 16.0.0, SVG Export Plug-In . SVG Version: 6.00 Build 0)  -->
<!DOCTYPE svg PUBLIC "-//W3C//DTD SVG 1.1//EN" "http://www.w3.org/Graphics/SVG/1.1/DTD/svg11.dtd">
<svg version="1.1" id="Layer_1" xmlns="http://www.w3.org/2000/svg" xmlns:xlink="http://www.w3.org/1999/xlink" x="0px" y="0px"
	 width="32px" height="32px" viewBox="0 0 32 32" enable-background="new 0 0 32 32" xml:space="preserve">
<path fill="#FFFFFF" d="M16.354,21.217c-0.286,0.098-0.641,0.159-0.959,0.159c-0.385,0-0.735-0.031-1.057-0.128l-3.775,8.705
	c-0.353,0.799-1.28,1.055-2.112,0.607c-0.832-0.479-1.216-1.473-0.863-2.271l4.642-10.627h5.92V16.64l2.975-1.375
	c0.801-0.384,1.793,0.257,2.016,1.088l1.474,5.889c0.225,0.833-0.287,1.663-1.119,1.888s-1.697-0.287-1.89-1.12l-0.928-3.744
	L16.354,21.217z"/>
<path fill="#FFFFFF" d="M7.138,12.736c0.354,0.544,1.024,0.769,1.634,0.513l3.423-1.344v5.758h5.954l-0.034-6.526l5.278-8.479
	c0.386-0.608,0.226-1.44-0.414-1.824c-0.608-0.384-1.44-0.225-1.793,0.384l-4.479,7.232h-2.719c-0.16,0-0.354,0.031-0.514,0.095
	l-4.672,1.824L6.37,6.721c-0.384-0.607-1.216-0.8-1.824-0.384c-0.606,0.384-0.8,1.216-0.416,1.856L7.138,12.736z"/>
<path fill="#FFFFFF" d="M14.755,7.968c1.312,0,2.367-1.056,2.367-2.335c0-1.312-1.055-2.368-2.367-2.368
	c-1.312,0-2.367,1.057-2.367,2.368C12.388,6.912,13.442,7.968,14.755,7.968z"/>
<rect y="30.958" fill="#FFFFFF" width="32" height="1.042"/>
</svg>
