<?xml version="1.0" encoding="utf-8"?>
<!DOCTYPE svg PUBLIC "-//W3C//DTD SVG 1.1//EN" "http://www.w3.org/Graphics/SVG/1.1/DTD/svg11.dtd">
<svg version="1.1" id="Layer_1" xmlns="http://www.w3.org/2000/svg" xmlns:xlink="http://www.w3.org/1999/xlink" x="0px" y="0px"
	 width="32px" height="32px" viewBox="496 368 32 32" enable-background="new 496 368 32 32" xml:space="preserve">
<path fill="#FFFFFF" d="M512.354,389.217c-0.287,0.097-0.641,0.159-0.96,0.159c-0.384,0-0.735-0.031-1.056-0.128l-3.776,8.705
	c-0.352,0.799-1.28,1.055-2.112,0.608c-0.832-0.48-1.216-1.473-0.863-2.271l4.641-10.627h5.92v-1.023l2.975-1.375
	c0.801-0.384,1.793,0.256,2.016,1.088l1.473,5.888c0.225,0.833-0.287,1.663-1.119,1.888s-1.697-0.287-1.889-1.12l-0.928-3.744
	L512.354,389.217z"/>
<path fill="#FFFFFF" d="M515.106,383.136c6.465-3.232,8.961-14.208,8.961-15.136h-0.865c-0.32,2.304-3.104,11.488-8.096,14.144
	V383.136z"/>
<path fill="#FFFFFF" d="M503.138,380.736c0.353,0.544,1.024,0.769,1.633,0.513l3.423-1.344v4.735h5.92v-5.503l5.279-8.48
	c0.385-0.608,0.225-1.44-0.414-1.824c-0.609-0.384-1.441-0.225-1.793,0.384l-4.48,7.232h-2.719c-0.16,0-0.354,0.031-0.513,0.095
	l-4.672,1.824l-2.432-3.647c-0.384-0.608-1.216-0.8-1.824-0.384c-0.607,0.384-0.8,1.216-0.416,1.856L503.138,380.736z"/>
<path fill="#FFFFFF" d="M510.755,375.968c1.312,0,2.367-1.056,2.367-2.335c0-1.312-1.055-2.368-2.367-2.368
	s-2.367,1.056-2.367,2.368C508.388,374.912,509.442,375.968,510.755,375.968z"/>
<polygon fill="#FFFFFF" points="514.114,400 514.114,389.407 513.122,389.856 513.122,400 "/>
</svg>
